<svg width="196" height="102" viewBox="0 0 196 102" fill="none" xmlns="http://www.w3.org/2000/svg">
<g clip-path="url(#clip0_333_204)">
<path d="M104.453 25.9635C103.723 27.0975 102.927 28.181 102.174 29.3019C101.415 30.4314 100.768 31.6378 100.091 32.8222C99.8494 33.2433 99.584 33.6381 99.312 34.0308L99.1387 40.4639C98.8251 52.1326 94.3089 52.3147 91.1483 52.3147C88.8387 52.3147 83.6382 49.981 82.5042 42.4774C82.3638 42.9161 81.8462 44.3155 80.2692 45.0678C79.0694 45.6403 77.863 45.5482 77.3191 45.4736C77.7665 46.3619 78.5123 47.6231 79.7515 48.8404C81.9581 51.0074 85.5069 52.8608 91.1329 52.8608C96.7589 52.8608 103.901 50.4306 104.168 40.4639L104.563 25.7837C104.526 25.8429 104.493 25.9043 104.453 25.9635Z" fill="#A27E63"/>
<path d="M96.0131 9.95898L96.0065 10.2068C98.7197 10.2068 99.902 12.0756 99.8691 13.2841L99.4019 30.6293C99.8669 29.809 100.338 28.993 100.86 28.2122C101.626 27.0695 102.442 25.964 103.185 24.8037C103.718 23.9724 104.17 23.0885 104.657 22.2265L104.898 13.2732C104.931 12.0646 106.214 10.209 108.925 10.209L108.932 9.96118H96.0109L96.0131 9.95898Z" fill="#A27E63"/>
<path d="M122.18 14.9791C122.29 14.9199 122.406 14.8673 122.529 14.8234C122.943 14.5799 123.422 14.4681 123.961 14.4878H124.005C124.393 14.4878 124.775 14.5492 125.154 14.6567C124.52 12.9875 122.832 10.7744 118.541 10.1186C116.186 9.75891 113.122 10.0945 111.49 12.7901L91.6265 43.8658L92.1068 13.2749C92.1397 12.0663 93.4228 10.2107 96.1339 10.2107L96.1404 9.96289H83.2193L83.2127 10.2107C85.9259 10.2107 87.1081 12.0795 87.0752 13.288L87.3472 48.0924L87.2507 48.235H90.5166C90.5166 48.235 108.191 21.2851 112.518 13.2091C113.979 10.4849 116.993 10.4652 118.408 10.6823C119.517 10.8534 121.781 11.9347 122.174 14.9813L122.18 14.9791Z" fill="#A27E63"/>
<path d="M123.996 19.5999C125.164 19.5999 126.111 18.6533 126.111 17.4855C126.111 16.3177 125.164 15.3711 123.996 15.3711C122.828 15.3711 121.882 16.3177 121.882 17.4855C121.882 18.6533 122.828 19.5999 123.996 19.5999Z" fill="#A27E63"/>
<path d="M112.764 10.3527C108.364 4.09502 101.093 0 92.8811 0C79.4861 0 68.5895 10.8967 68.5895 24.2916V28.1826H69.4032V24.2916C69.4032 11.3463 79.9358 0.81374 92.8811 0.81374C100.834 0.81374 107.875 4.79032 112.123 10.8594C112.33 10.6795 112.542 10.5084 112.764 10.3505V10.3527Z" fill="#A27E63"/>
<path d="M114.122 12.519C113.918 12.7252 113.727 12.9424 113.551 13.1705C115.341 16.4825 116.359 20.2704 116.359 24.2931V28.1841H117.173V24.2931C117.173 20.0226 116.065 16.0087 114.122 12.519Z" fill="#A27E63"/>
<path d="M116.359 33.6055V37.7071C116.359 50.6523 105.826 61.1849 92.8811 61.1849C79.9358 61.1849 69.4032 50.6545 69.4032 37.7093V33.6077H68.5895V37.7093C68.5895 51.1042 79.4861 62.0008 92.8811 62.0008C106.276 62.0008 117.173 51.1042 117.173 37.7093V33.6077H116.359V33.6055Z" fill="#A27E63"/>
<path d="M68.9184 31.184C69.1571 31.184 69.3505 30.9906 69.3505 30.7519C69.3505 30.5133 69.1571 30.3198 68.9184 30.3198C68.6798 30.3198 68.4863 30.5133 68.4863 30.7519C68.4863 30.9906 68.6798 31.184 68.9184 31.184Z" fill="#A27E63"/>
<path d="M116.778 31.184C117.016 31.184 117.21 30.9906 117.21 30.7519C117.21 30.5133 117.016 30.3198 116.778 30.3198C116.539 30.3198 116.346 30.5133 116.346 30.7519C116.346 30.9906 116.539 31.184 116.778 31.184Z" fill="#A27E63"/>
</g>
<g clip-path="url(#clip1_333_204)">
<path d="M10.9484 70V82.3487C10.9484 84.1888 10.3103 85.7644 9.10629 86.8994C7.94498 87.997 6.30579 88.6005 4.49308 88.6005C2.76045 88.6005 1.14529 87.9596 0 86.8299L0.525927 86.416C1.60982 87.5323 2.9767 88.1198 4.49308 88.1198C5.86262 88.1198 6.92516 87.746 7.65131 87.0062C8.84466 85.7911 8.80995 83.9618 8.79126 82.979V70H10.9484Z" fill="#585947"/>
<path d="M29.2998 88.4294H26.8811L25.6424 85.2461L25.2606 84.3354H14.7474L13.0735 88.4268H12.5422L19.6249 70.9345L19.9666 70.0532H22.073L29.2171 88.2238L29.2972 88.4268L29.2998 88.4294ZM25.0791 83.8547L20.0521 70.9986L15.1932 83.1951L14.945 83.8574H25.0817L25.0791 83.8547Z" fill="#585947"/>
<path d="M43.2384 83.131L42.8753 83.2993L46.2604 88.4295H43.5293L41.172 84.72C40.8196 84.1646 40.1896 83.8281 39.5328 83.8414C39.354 83.8468 39.1751 83.8494 39.0229 83.8494H34.052V88.4295H31.8495V70.0586H39.0229C43.2704 70.0586 46.9973 73.2312 46.9973 76.8472V77.0608C46.9973 79.6753 45.8386 81.7423 43.7322 82.88C43.4786 83.0162 43.2357 83.1284 43.233 83.131H43.2384ZM44.7841 77.0715V76.8365C44.7841 72.9882 42.4161 70.3016 39.0256 70.3016H34.0546V83.6037H39.0256C42.4161 83.6037 44.7841 80.9171 44.7841 77.0715Z" fill="#585947"/>
<path d="M61.9527 87.9488C61.7925 88.1331 61.6297 88.3174 61.5335 88.4295H50.3342V70.8171L50.3422 70.0239H51.2606H52.5234V87.9461H61.9527V87.9488Z" fill="#585947"/>
<path d="M66.427 70.0376V88.4298H64.2139V70.8254L64.2192 70.0376H66.4297H66.427Z" fill="#585947"/>
<path d="M86.3377 70.0347V88.4296H85.0723L71.0965 73.4049L71.0911 88.4296H70.6079V70.0347H71.3581L85.8625 85.5614V70.0347H86.3377Z" fill="#585947"/>
<path d="M92.694 87.8771H102.665L102.249 88.4299H90.5316V70.043H102.753L102.275 70.529H92.6913V77.6087H102.497L102.115 78.0867H92.6967V87.8771H92.694Z" fill="#585947"/>
<path d="M131.629 70.0347L124.487 88.3334L124.453 88.4296H122.245L115.085 70.0347H117.479L124.295 87.4361L130.692 70.9614L131.065 70.0347H131.626H131.629Z" fill="#585947"/>
<path d="M136.397 70.0376V88.4298H134.184V70.8254L134.189 70.0376H136.399H136.397Z" fill="#585947"/>
<path d="M142.735 87.8771H152.706L152.29 88.4299H140.572V70.043H152.794L152.316 70.529H142.732V77.6087H152.538L152.156 78.0867H142.737V87.8771H142.735Z" fill="#585947"/>
<path d="M157.821 70.0376V88.4298H155.608V70.8254L155.613 70.0376H157.824H157.821Z" fill="#585947"/>
<path d="M188.554 86.4881L188.987 86.894C186.862 88.2774 184.374 89.0064 181.768 89.0064C175.873 89.0064 171.212 87.0382 168.983 83.6039L168.879 83.4436L164.215 83.449V88.4403H162.055V70.8252V70.0641H168.393C172.568 70.0667 176.231 73.1646 176.231 76.6951V76.8233C176.231 79.6861 173.668 81.9882 171.287 82.9149L170.889 83.0698L171.127 83.4276C172.753 85.8845 177.051 87.8261 180.268 88.2854C183.212 88.7073 186.154 88.0664 188.554 86.4881ZM173.965 76.826V76.6898C173.965 73.0338 171.674 70.4807 168.393 70.4807H164.215V83.035H168.393C171.674 83.035 173.965 80.482 173.965 76.826ZM195.098 88.4136H192.716L191.2 84.6881L191.085 84.349H180.74L179.87 86.432C179.849 86.4828 179.776 86.5362 179.691 86.5255C179.48 86.5068 179.259 86.4774 179.026 86.4374C178.954 86.4267 178.893 86.3866 178.863 86.3332C178.834 86.2798 178.85 86.2397 178.855 86.2264L185.439 70.04H187.47L195.004 88.2079L195.098 88.4136ZM190.682 83.4944L185.719 71.7412L181.093 83.4944H190.682Z" fill="#585947"/>
<path d="M38.916 100.021H36.8203L36.4332 101.089H35.7711L37.5091 96.3062H38.2326L39.9652 101.089H39.3031L38.916 100.021ZM38.7371 99.5108L37.8668 97.0833L36.9965 99.5108H38.7345H38.7371Z" fill="#585947"/>
<path d="M44.7732 101.089L43.6279 99.1239H42.8697V101.089H42.2424V96.2798H43.7935C44.1565 96.2798 44.4635 96.3412 44.7145 96.4667C44.9654 96.5896 45.1523 96.7578 45.2778 96.9715C45.4033 97.1824 45.4647 97.4255 45.4647 97.6952C45.4647 98.0263 45.3686 98.3174 45.179 98.5711C44.9895 98.8248 44.7011 98.9931 44.3194 99.0759L45.5261 101.089H44.7732ZM42.8697 98.6192H43.7935C44.1325 98.6192 44.3888 98.5364 44.5597 98.3682C44.7305 98.1999 44.8159 97.9756 44.8159 97.6952C44.8159 97.4148 44.7332 97.1905 44.565 97.0329C44.3968 96.8753 44.1405 96.7979 43.7961 96.7979H42.8724V98.6192H42.8697Z" fill="#585947"/>
<path d="M51.8079 102L50.8494 101.041C50.6145 101.105 50.3769 101.137 50.1313 101.137C49.6855 101.137 49.277 101.033 48.9112 100.822C48.5428 100.614 48.2518 100.32 48.0383 99.9464C47.8247 99.5725 47.7179 99.1506 47.7179 98.6806C47.7179 98.2105 47.8247 97.7886 48.0383 97.4147C48.2518 97.0408 48.5428 96.7471 48.9112 96.5388C49.2797 96.3305 49.6855 96.2236 50.1313 96.2236C50.5771 96.2236 50.9909 96.3278 51.3593 96.5388C51.7278 96.7471 52.0161 97.0382 52.2297 97.412C52.4406 97.7859 52.5474 98.2079 52.5474 98.6806C52.5474 99.1532 52.4459 99.5538 52.243 99.9224C52.0401 100.291 51.7625 100.579 51.4074 100.79L52.6221 101.997H51.8079V102ZM48.5909 99.69C48.7457 99.9785 48.9566 100.203 49.2263 100.36C49.4959 100.518 49.7976 100.595 50.134 100.595C50.4703 100.595 50.772 100.518 51.0417 100.36C51.3113 100.205 51.5222 99.9811 51.677 99.69C51.8319 99.4016 51.9093 99.0651 51.9093 98.6832C51.9093 98.3013 51.8319 97.9595 51.677 97.6711C51.5222 97.3827 51.3113 97.161 51.047 97.0061C50.78 96.8485 50.4757 96.7711 50.1366 96.7711C49.7976 96.7711 49.4932 96.8485 49.2263 97.0061C48.9593 97.1637 48.7484 97.3853 48.5962 97.6711C48.4414 97.9595 48.364 98.296 48.364 98.6832C48.364 99.0705 48.4414 99.4016 48.5962 99.69H48.5909Z" fill="#585947"/>
<path d="M55.5187 96.2822V99.324C55.5187 99.7513 55.6229 100.069 55.8338 100.277C56.042 100.486 56.333 100.587 56.7068 100.587C57.0805 100.587 57.3635 100.483 57.5717 100.277C57.78 100.072 57.8868 99.754 57.8868 99.324V96.2822H58.5141V99.3187C58.5141 99.7193 58.434 100.056 58.2739 100.331C58.1137 100.606 57.8948 100.809 57.6225 100.942C57.3502 101.076 57.0431 101.143 56.7014 101.143C56.3597 101.143 56.0554 101.076 55.7804 100.942C55.5081 100.809 55.2918 100.606 55.1316 100.331C54.9741 100.058 54.894 99.7193 54.894 99.3187V96.2822H55.5214H55.5187Z" fill="#585947"/>
<path d="M61.7071 96.2822V101.092H61.0797V96.2822H61.7071Z" fill="#585947"/>
<path d="M67.252 96.2822V96.7923H65.9412V101.092H65.3138V96.7923H63.995V96.2822H67.252Z" fill="#585947"/>
<path d="M70.1699 96.7925V98.4002H71.9212V98.9183H70.1699V100.574H72.1294V101.092H69.5425V96.2744H72.1294V96.7925H70.1699Z" fill="#585947"/>
<path d="M77.5569 96.2822V96.7923H76.2461V101.092H75.6187V96.7923H74.2999V96.2822H77.5569Z" fill="#585947"/>
<path d="M80.4615 96.2822V99.324C80.4615 99.7513 80.5656 100.069 80.7765 100.277C80.9848 100.486 81.2758 100.587 81.6495 100.587C82.0233 100.587 82.3062 100.483 82.5145 100.277C82.7227 100.072 82.8295 99.754 82.8295 99.324V96.2822H83.4569V99.3187C83.4569 99.7193 83.3768 100.056 83.2166 100.331C83.0564 100.606 82.8375 100.809 82.5652 100.942C82.2929 101.076 81.9859 101.143 81.6442 101.143C81.3025 101.143 80.9981 101.076 80.7231 100.942C80.4508 100.809 80.2346 100.606 80.0744 100.331C79.9169 100.058 79.8368 99.7193 79.8368 99.3187V96.2822H80.4642H80.4615Z" fill="#585947"/>
<path d="M88.5533 101.089L87.408 99.1239H86.6498V101.089H86.0225V96.2798H87.5735C87.9366 96.2798 88.2436 96.3412 88.4946 96.4667C88.7455 96.5896 88.9324 96.7578 89.0579 96.9715C89.1834 97.1824 89.2448 97.4255 89.2448 97.6952C89.2448 98.0263 89.1487 98.3174 88.9591 98.5711C88.7696 98.8248 88.4812 98.9931 88.0995 99.0759L89.3062 101.089H88.5533ZM86.6498 98.6192H87.5735C87.9126 98.6192 88.1689 98.5364 88.3397 98.3682C88.5106 98.1999 88.596 97.9756 88.596 97.6952C88.596 97.4148 88.5133 97.1905 88.3451 97.0329C88.1769 96.8753 87.9206 96.7979 87.5762 96.7979H86.6525V98.6192H86.6498Z" fill="#585947"/>
<path d="M94.5734 100.021H92.4777L92.0906 101.089H91.4285L93.1665 96.3062H93.89L95.6226 101.089H94.9605L94.5734 100.021ZM94.3945 99.5108L93.5242 97.0833L92.6539 99.5108H94.3919H94.3945Z" fill="#585947"/>
<path d="M101.886 96.7925V98.4002H103.637V98.9183H101.886V100.574H103.845V101.092H101.258V96.2744H103.845V96.7925H101.886Z" fill="#585947"/>
<path d="M110.301 96.2822V101.092H109.673V96.2822H110.301Z" fill="#585947"/>
<path d="M116.668 101.089H116.04L113.515 97.2596V101.089H112.888V96.2715H113.515L116.04 100.093V96.2715H116.668V101.089Z" fill="#585947"/>
<path d="M122.213 96.2822V96.7923H120.902V101.092H120.275V96.7923H118.956V96.2822H122.213Z" fill="#585947"/>
<path d="M125.131 96.7925V98.4002H126.882V98.9183H125.131V100.574H127.09V101.092H124.503V96.2744H127.09V96.7925H125.131Z" fill="#585947"/>
<path d="M132.091 101.089L130.945 99.1239H130.187V101.089H129.56V96.2798H131.111C131.474 96.2798 131.781 96.3412 132.032 96.4667C132.283 96.5896 132.47 96.7578 132.595 96.9715C132.721 97.1824 132.782 97.4255 132.782 97.6952C132.782 98.0263 132.686 98.3174 132.496 98.5711C132.307 98.8248 132.019 98.9931 131.637 99.0759L132.844 101.089H132.091ZM130.187 98.6192H131.111C131.45 98.6192 131.706 98.5364 131.877 98.3682C132.048 98.1999 132.133 97.9756 132.133 97.6952C132.133 97.4148 132.051 97.1905 131.882 97.0329C131.714 96.8753 131.458 96.7979 131.114 96.7979H130.19V98.6192H130.187Z" fill="#585947"/>
<path d="M135.898 96.2822V101.092H135.27V96.2822H135.898Z" fill="#585947"/>
<path d="M139.443 100.825C139.074 100.616 138.783 100.323 138.57 99.9489C138.356 99.575 138.25 99.153 138.25 98.683C138.25 98.213 138.356 97.791 138.57 97.4171C138.783 97.0433 139.074 96.7495 139.443 96.5412C139.811 96.3329 140.217 96.2261 140.663 96.2261C141.109 96.2261 141.523 96.3302 141.891 96.5412C142.259 96.7495 142.548 97.0406 142.761 97.4145C142.972 97.7884 143.079 98.2103 143.079 98.683C143.079 99.1557 142.972 99.5803 142.761 99.9515C142.55 100.325 142.259 100.616 141.891 100.825C141.523 101.033 141.114 101.14 140.663 101.14C140.212 101.14 139.809 101.036 139.443 100.825ZM141.573 100.36C141.843 100.205 142.054 99.9809 142.209 99.6898C142.363 99.4014 142.441 99.0649 142.441 98.683C142.441 98.3011 142.363 97.9593 142.209 97.6709C142.054 97.3824 141.843 97.1608 141.579 97.0059C141.312 96.8483 141.007 96.7709 140.668 96.7709C140.329 96.7709 140.025 96.8483 139.758 97.0059C139.491 97.1634 139.28 97.3851 139.128 97.6709C138.973 97.9593 138.896 98.2958 138.896 98.683C138.896 99.0702 138.973 99.4014 139.128 99.6898C139.283 99.9782 139.494 100.203 139.763 100.36C140.033 100.518 140.335 100.595 140.671 100.595C141.007 100.595 141.309 100.518 141.579 100.36H141.573Z" fill="#585947"/>
<path d="M147.957 101.089L146.811 99.1239H146.053V101.089H145.426V96.2798H146.977C147.34 96.2798 147.647 96.3412 147.898 96.4667C148.149 96.5896 148.336 96.7578 148.461 96.9715C148.587 97.1824 148.648 97.4255 148.648 97.6952C148.648 98.0263 148.552 98.3174 148.362 98.5711C148.173 98.8248 147.884 98.9931 147.503 99.0759L148.709 101.089H147.957ZM146.053 98.6192H146.977C147.316 98.6192 147.572 98.5364 147.743 98.3682C147.914 98.1999 147.999 97.9756 147.999 97.6952C147.999 97.4148 147.916 97.1905 147.748 97.0329C147.58 96.8753 147.324 96.7979 146.979 96.7979H146.056V98.6192H146.053Z" fill="#585947"/>
<path d="M151.764 96.7925V98.4002H153.515V98.9183H151.764V100.574H153.723V101.092H151.136V96.2744H153.723V96.7925H151.764Z" fill="#585947"/>
<path d="M156.865 100.969C156.614 100.857 156.417 100.699 156.275 100.499C156.134 100.299 156.059 100.067 156.054 99.8048H156.724C156.748 100.029 156.841 100.219 157.004 100.374C157.167 100.529 157.405 100.606 157.717 100.606C158.029 100.606 158.251 100.531 158.424 100.382C158.598 100.232 158.683 100.04 158.683 99.8048C158.683 99.6206 158.633 99.471 158.531 99.3562C158.43 99.2413 158.304 99.1532 158.152 99.0945C158 99.0357 157.794 98.969 157.538 98.9022C157.22 98.8194 156.967 98.7366 156.777 98.6538C156.588 98.571 156.422 98.4402 156.289 98.2639C156.152 98.0877 156.086 97.85 156.086 97.5509C156.086 97.2892 156.152 97.0568 156.286 96.8539C156.419 96.6509 156.606 96.496 156.849 96.3838C157.09 96.2743 157.367 96.2183 157.68 96.2183C158.131 96.2183 158.499 96.3304 158.787 96.5574C159.076 96.7818 159.236 97.0809 159.273 97.4547H158.585C158.561 97.2705 158.464 97.1076 158.296 96.9687C158.125 96.8298 157.901 96.7577 157.621 96.7577C157.359 96.7577 157.146 96.8245 156.98 96.9607C156.815 97.0969 156.732 97.2865 156.732 97.5295C156.732 97.7031 156.783 97.8473 156.881 97.9568C156.98 98.0663 157.103 98.1518 157.247 98.2078C157.391 98.2639 157.597 98.3307 157.858 98.4055C158.176 98.4936 158.43 98.579 158.625 98.6645C158.817 98.75 158.982 98.8808 159.121 99.0571C159.26 99.2333 159.327 99.4737 159.327 99.7781C159.327 100.013 159.265 100.235 159.14 100.44C159.014 100.649 158.833 100.814 158.587 100.945C158.344 101.073 158.056 101.137 157.725 101.137C157.394 101.137 157.124 101.081 156.873 100.969H156.865Z" fill="#585947"/>
</g>
<defs>
<clipPath id="clip0_333_204">
<rect width="57.6242" height="62" fill="white" transform="translate(68.4863)"/>
</clipPath>
<clipPath id="clip1_333_204">
<rect width="195.098" height="32" fill="white" transform="translate(0 70)"/>
</clipPath>
</defs>
</svg>
