<svg width="244" height="40" viewBox="0 0 244 40" fill="none" xmlns="http://www.w3.org/2000/svg">
<g clip-path="url(#clip0_301_1763)">
<path d="M13.6855 0V15.4359C13.6855 17.7359 12.8879 19.7055 11.3829 21.1242C9.93122 22.4962 7.88224 23.2507 5.61634 23.2507C3.45056 23.2507 1.43162 22.4495 0 21.0374L0.657409 20.52C2.01227 21.9154 3.72087 22.6498 5.61634 22.6498C7.32828 22.6498 8.65645 22.1824 9.56414 21.2578C11.0558 19.7389 11.0124 17.4522 10.9891 16.2237V0H13.6855Z" fill="#E2E0D4"/>
<path d="M36.6248 23.0367H33.6014L32.053 19.0575L31.5757 17.9192H18.4342L16.3419 23.0333H15.6778L24.5311 1.16802L24.9583 0.0664062H27.5912L36.5213 22.7796L36.6214 23.0333L36.6248 23.0367ZM31.3488 17.3183L25.0651 1.24813L18.9915 16.4938L18.6812 17.3216H31.3522L31.3488 17.3183Z" fill="#E2E0D4"/>
<path d="M54.0479 16.4138L53.5941 16.6241L57.8255 23.0368H54.4116L51.465 18.4C51.0245 17.7057 50.2369 17.2851 49.416 17.3018C49.1924 17.3085 48.9688 17.3118 48.7786 17.3118H42.5649V23.0368H39.8118V0.0732422H48.7786C54.0879 0.0732422 58.7465 4.03904 58.7465 8.55899V8.82604C58.7465 12.0942 57.2982 14.6779 54.6653 16.1C54.3482 16.2703 54.0446 16.4105 54.0412 16.4138H54.0479ZM55.9801 8.8394V8.54563C55.9801 3.73527 53.0201 0.37702 48.7819 0.37702H42.5683V17.0047H48.7819C53.0201 17.0047 55.9801 13.6464 55.9801 8.8394Z" fill="#E2E0D4"/>
<path d="M77.4409 22.4359C77.2407 22.6662 77.0371 22.8966 76.917 23.0368H62.9178V1.02124L62.9278 0.0297852H64.0758H65.6542V22.4326H77.4409V22.4359Z" fill="#E2E0D4"/>
<path d="M83.0338 0.046875V23.0372H80.2674V1.03165L80.274 0.046875H83.0372H83.0338Z" fill="#E2E0D4"/>
<path d="M107.922 0.043457V23.0371H106.34L88.8706 4.25629L88.8639 23.0371H88.2599V0.043457H89.1976L107.328 19.4518V0.043457H107.922Z" fill="#E2E0D4"/>
<path d="M115.867 22.3463H128.332L127.811 23.0373H113.164V0.0537109H128.442L127.844 0.661266H115.864V9.51087H128.121L127.644 10.1084H115.871V22.3463H115.867Z" fill="#E2E0D4"/>
<path d="M164.536 0.043457L155.609 22.9169L155.566 23.0371H152.806L143.856 0.043457H146.849L155.369 21.7953L163.365 1.20182L163.832 0.043457H164.532H164.536Z" fill="#E2E0D4"/>
<path d="M170.496 0.046875V23.0372H167.729V1.03165L167.736 0.046875H170.499H170.496Z" fill="#E2E0D4"/>
<path d="M178.418 22.3463H190.882L190.362 23.0373H175.715V0.0537109H190.993L190.395 0.661266H178.415V9.51087H190.672L190.195 10.1084H178.422V22.3463H178.418Z" fill="#E2E0D4"/>
<path d="M197.276 0.046875V23.0372H194.51V1.03165L194.517 0.046875H197.28H197.276Z" fill="#E2E0D4"/>
<path d="M235.693 20.6099L236.234 21.1173C233.577 22.8465 230.467 23.7578 227.21 23.7578C219.842 23.7578 214.015 21.2975 211.229 17.0046L211.099 16.8043L205.269 16.811V23.0501H202.569V1.03124V0.0798486H210.491C215.71 0.0831868 220.289 3.95552 220.289 8.36864V8.52887C220.289 12.1074 217.085 14.985 214.109 16.1433L213.611 16.337L213.908 16.7843C215.941 19.8554 221.313 22.2823 225.335 22.8565C229.015 23.3839 232.693 22.5828 235.693 20.6099ZM217.456 8.53221V8.36196C217.456 3.79194 214.592 0.60061 210.491 0.60061H205.269V16.2936H210.491C214.592 16.2936 217.456 13.1022 217.456 8.53221ZM243.872 23.0167H240.896L239 18.3599L238.857 17.936H225.925L224.837 20.5398C224.811 20.6032 224.721 20.67 224.614 20.6566C224.35 20.6332 224.073 20.5965 223.783 20.5464C223.693 20.5331 223.616 20.483 223.579 20.4163C223.543 20.3495 223.563 20.2994 223.569 20.2827L231.799 0.0498047H234.338L243.755 22.7597L243.872 23.0167ZM238.353 16.8677L232.149 2.17625L226.366 16.8677H238.353Z" fill="#E2E0D4"/>
<path d="M48.6449 37.5258H46.0253L45.5414 38.8611H44.7138L46.8863 32.8823H47.7906L49.9564 38.8611H49.1288L48.6449 37.5258ZM48.4213 36.8882L47.3334 33.8537L46.2456 36.8882H48.418H48.4213Z" fill="#E2E0D4"/>
<path d="M55.9665 38.8612L54.5349 36.4043H53.5871V38.8612H52.8029V32.8491H54.7418C55.1956 32.8491 55.5794 32.9259 55.8931 33.0828C56.2068 33.2364 56.4404 33.4467 56.5972 33.7137C56.7541 33.9774 56.8308 34.2812 56.8308 34.6184C56.8308 35.0323 56.7107 35.3962 56.4737 35.7133C56.2368 36.0304 55.8764 36.2407 55.3992 36.3442L56.9076 38.8612H55.9665ZM53.5871 35.7734H54.7418C55.1656 35.7734 55.486 35.6699 55.6995 35.4596C55.9131 35.2493 56.0199 34.9689 56.0199 34.6184C56.0199 34.2679 55.9164 33.9875 55.7062 33.7905C55.496 33.5935 55.1756 33.4967 54.7451 33.4967H53.5905V35.7734H53.5871Z" fill="#E2E0D4"/>
<path d="M64.7598 39.9999L63.5618 38.8014C63.2681 38.8816 62.9711 38.9216 62.6641 38.9216C62.1068 38.9216 61.5962 38.7914 61.139 38.5277C60.6785 38.2673 60.3148 37.9001 60.0478 37.4328C59.7808 36.9654 59.6473 36.438 59.6473 35.8505C59.6473 35.2629 59.7808 34.7355 60.0478 34.2681C60.3148 33.8008 60.6785 33.4336 61.139 33.1732C61.5995 32.9128 62.1068 32.7793 62.6641 32.7793C63.2214 32.7793 63.7386 32.9095 64.1991 33.1732C64.6597 33.4336 65.0201 33.7975 65.287 34.2648C65.5507 34.7322 65.6842 35.2596 65.6842 35.8505C65.6842 36.4413 65.5573 36.9421 65.3037 37.4027C65.0501 37.8634 64.703 38.2239 64.2592 38.4876L65.7776 39.9965H64.7598V39.9999ZM60.7386 37.1123C60.9321 37.4728 61.1958 37.7532 61.5328 37.9502C61.8698 38.1471 62.2469 38.244 62.6674 38.244C63.0879 38.244 63.465 38.1471 63.802 37.9502C64.1391 37.7566 64.4027 37.4762 64.5963 37.1123C64.7898 36.7518 64.8866 36.3312 64.8866 35.8538C64.8866 35.3764 64.7898 34.9491 64.5963 34.5886C64.4027 34.2281 64.1391 33.951 63.8087 33.7574C63.475 33.5604 63.0946 33.4636 62.6708 33.4636C62.2469 33.4636 61.8665 33.5604 61.5328 33.7574C61.1991 33.9543 60.9355 34.2314 60.7452 34.5886C60.5517 34.9491 60.4549 35.3698 60.4549 35.8538C60.4549 36.3378 60.5517 36.7518 60.7452 37.1123H60.7386Z" fill="#E2E0D4"/>
<path d="M69.3984 32.8525V36.6548C69.3984 37.1889 69.5285 37.5861 69.7922 37.8465C70.0525 38.1069 70.4162 38.2337 70.8834 38.2337C71.3506 38.2337 71.7043 38.1036 71.9646 37.8465C72.2249 37.5895 72.3584 37.1922 72.3584 36.6548V32.8525H73.1426V36.6481C73.1426 37.1488 73.0425 37.5694 72.8423 37.9133C72.6421 38.2571 72.3684 38.5108 72.028 38.6777C71.6877 38.8446 71.3039 38.9281 70.8767 38.9281C70.4496 38.9281 70.0692 38.8446 69.7254 38.6777C69.3851 38.5108 69.1147 38.2571 68.9145 37.9133C68.7176 37.5728 68.6175 37.1488 68.6175 36.6481V32.8525H69.4017H69.3984Z" fill="#E2E0D4"/>
<path d="M77.1338 32.8525V38.8647H76.3496V32.8525H77.1338Z" fill="#E2E0D4"/>
<path d="M84.065 32.8525V33.4901H82.4265V38.8647H81.6422V33.4901H79.9937V32.8525H84.065Z" fill="#E2E0D4"/>
<path d="M87.7123 33.4904V35.5H89.9015V36.1476H87.7123V38.2173H90.1618V38.8649H86.9281V32.8428H90.1618V33.4904H87.7123Z" fill="#E2E0D4"/>
<path d="M96.9461 32.8525V33.4901H95.3075V38.8647H94.5233V33.4901H92.8748V32.8525H96.9461Z" fill="#E2E0D4"/>
<path d="M100.577 32.8525V36.6548C100.577 37.1889 100.707 37.5861 100.971 37.8465C101.231 38.1069 101.595 38.2337 102.062 38.2337C102.529 38.2337 102.883 38.1036 103.143 37.8465C103.403 37.5895 103.537 37.1922 103.537 36.6548V32.8525H104.321V36.6481C104.321 37.1488 104.221 37.5694 104.021 37.9133C103.821 38.2571 103.547 38.5108 103.207 38.6777C102.866 38.8446 102.482 38.9281 102.055 38.9281C101.628 38.9281 101.248 38.8446 100.904 38.6777C100.564 38.5108 100.293 38.2571 100.093 37.9133C99.8961 37.5728 99.796 37.1488 99.796 36.6481V32.8525H100.58H100.577Z" fill="#E2E0D4"/>
<path d="M110.692 38.8612L109.26 36.4043H108.312V38.8612H107.528V32.8491H109.467C109.921 32.8491 110.305 32.9259 110.618 33.0828C110.932 33.2364 111.166 33.4467 111.322 33.7137C111.479 33.9774 111.556 34.2812 111.556 34.6184C111.556 35.0323 111.436 35.3962 111.199 35.7133C110.962 36.0304 110.602 36.2407 110.124 36.3442L111.633 38.8612H110.692ZM108.312 35.7734H109.467C109.891 35.7734 110.211 35.6699 110.425 35.4596C110.638 35.2493 110.745 34.9689 110.745 34.6184C110.745 34.2679 110.642 33.9875 110.431 33.7905C110.221 33.5935 109.901 33.4967 109.47 33.4967H108.316V35.7734H108.312Z" fill="#E2E0D4"/>
<path d="M118.217 37.5258H115.597L115.113 38.8611H114.286L116.458 32.8823H117.362L119.528 38.8611H118.701L118.217 37.5258ZM117.993 36.8882L116.905 33.8537L115.817 36.8882H117.99H117.993Z" fill="#E2E0D4"/>
<path d="M127.357 33.4904V35.5H129.546V36.1476H127.357V38.2173H129.807V38.8649H126.573V32.8428H129.807V33.4904H127.357Z" fill="#E2E0D4"/>
<path d="M137.876 32.8525V38.8647H137.092V32.8525H137.876Z" fill="#E2E0D4"/>
<path d="M145.835 38.861H145.051L141.894 34.074V38.861H141.109V32.8389H141.894L145.051 37.6159V32.8389H145.835V38.861Z" fill="#E2E0D4"/>
<path d="M152.766 32.8525V33.4901H151.127V38.8647H150.343V33.4901H148.695V32.8525H152.766Z" fill="#E2E0D4"/>
<path d="M156.413 33.4904V35.5H158.602V36.1476H156.413V38.2173H158.863V38.8649H155.629V32.8428H158.863V33.4904H156.413Z" fill="#E2E0D4"/>
<path d="M165.113 38.8612L163.682 36.4043H162.734V38.8612H161.95V32.8491H163.889C164.342 32.8491 164.726 32.9259 165.04 33.0828C165.354 33.2364 165.587 33.4467 165.744 33.7137C165.901 33.9774 165.978 34.2812 165.978 34.6184C165.978 35.0323 165.857 35.3962 165.621 35.7133C165.384 36.0304 165.023 36.2407 164.546 36.3442L166.054 38.8612H165.113ZM162.734 35.7734H163.889C164.312 35.7734 164.633 35.6699 164.846 35.4596C165.06 35.2493 165.167 34.9689 165.167 34.6184C165.167 34.2679 165.063 33.9875 164.853 33.7905C164.643 33.5935 164.322 33.4967 163.892 33.4967H162.737V35.7734H162.734Z" fill="#E2E0D4"/>
<path d="M169.872 32.8525V38.8647H169.088V32.8525H169.872Z" fill="#E2E0D4"/>
<path d="M174.304 38.5306C173.843 38.2703 173.479 37.903 173.212 37.4357C172.945 36.9683 172.812 36.4409 172.812 35.8534C172.812 35.2659 172.945 34.7384 173.212 34.2711C173.479 33.8037 173.843 33.4365 174.304 33.1761C174.764 32.9158 175.271 32.7822 175.829 32.7822C176.386 32.7822 176.903 32.9124 177.364 33.1761C177.824 33.4365 178.185 33.8004 178.452 34.2677C178.715 34.7351 178.849 35.2625 178.849 35.8534C178.849 36.4442 178.715 36.975 178.452 37.439C178.188 37.9064 177.824 38.2703 177.364 38.5306C176.903 38.791 176.393 38.9245 175.829 38.9245C175.265 38.9245 174.761 38.7944 174.304 38.5306ZM176.967 37.9498C177.304 37.7562 177.567 37.4758 177.761 37.1119C177.954 36.7514 178.051 36.3307 178.051 35.8534C178.051 35.376 177.954 34.9487 177.761 34.5882C177.567 34.2277 177.304 33.9506 176.973 33.757C176.64 33.56 176.259 33.4632 175.835 33.4632C175.411 33.4632 175.031 33.56 174.697 33.757C174.364 33.9539 174.1 34.231 173.91 34.5882C173.716 34.9487 173.619 35.3693 173.619 35.8534C173.619 36.3374 173.716 36.7514 173.91 37.1119C174.103 37.4724 174.367 37.7528 174.704 37.9498C175.041 38.1467 175.418 38.2435 175.839 38.2435C176.259 38.2435 176.636 38.1467 176.973 37.9498H176.967Z" fill="#E2E0D4"/>
<path d="M184.946 38.8612L183.514 36.4043H182.566V38.8612H181.782V32.8491H183.721C184.175 32.8491 184.559 32.9259 184.872 33.0828C185.186 33.2364 185.42 33.4467 185.576 33.7137C185.733 33.9774 185.81 34.2812 185.81 34.6184C185.81 35.0323 185.69 35.3962 185.453 35.7133C185.216 36.0304 184.856 36.2407 184.378 36.3442L185.887 38.8612H184.946ZM182.566 35.7734H183.721C184.145 35.7734 184.465 35.6699 184.679 35.4596C184.892 35.2493 184.999 34.9689 184.999 34.6184C184.999 34.2679 184.896 33.9875 184.685 33.7905C184.475 33.5935 184.155 33.4967 183.724 33.4967H182.57V35.7734H182.566Z" fill="#E2E0D4"/>
<path d="M189.704 33.4904V35.5H191.894V36.1476H189.704V38.2173H192.154V38.8649H188.92V32.8428H192.154V33.4904H189.704Z" fill="#E2E0D4"/>
<path d="M196.082 38.7111C195.768 38.5709 195.521 38.374 195.344 38.1236C195.167 37.8733 195.074 37.5828 195.067 37.2557H195.905C195.935 37.5361 196.052 37.7731 196.255 37.9667C196.459 38.1603 196.756 38.2571 197.146 38.2571C197.537 38.2571 197.814 38.1637 198.03 37.9767C198.247 37.7898 198.354 37.5494 198.354 37.2557C198.354 37.0253 198.291 36.8384 198.164 36.6949C198.037 36.5513 197.88 36.4412 197.69 36.3677C197.5 36.2943 197.243 36.2108 196.923 36.1274C196.525 36.0239 196.208 35.9204 195.972 35.8169C195.735 35.7134 195.528 35.5499 195.361 35.3295C195.191 35.1092 195.107 34.8121 195.107 34.4382C195.107 34.1111 195.191 33.8207 195.357 33.567C195.524 33.3133 195.758 33.1196 196.062 32.9794C196.362 32.8426 196.709 32.7725 197.099 32.7725C197.663 32.7725 198.124 32.9127 198.484 33.1964C198.845 33.4768 199.045 33.8507 199.092 34.3181H198.231C198.201 34.0877 198.081 33.8841 197.87 33.7105C197.657 33.5369 197.376 33.4468 197.026 33.4468C196.699 33.4468 196.432 33.5302 196.225 33.7005C196.018 33.8707 195.915 34.1077 195.915 34.4115C195.915 34.6285 195.978 34.8088 196.102 34.9456C196.225 35.0825 196.379 35.1893 196.559 35.2594C196.739 35.3295 196.996 35.413 197.323 35.5065C197.72 35.6166 198.037 35.7234 198.281 35.8303C198.521 35.9371 198.728 36.1007 198.901 36.321C199.075 36.5413 199.158 36.8417 199.158 37.2223C199.158 37.5161 199.082 37.7931 198.925 38.0502C198.768 38.3106 198.541 38.5175 198.234 38.6811C197.93 38.8413 197.57 38.9215 197.156 38.9215C196.742 38.9215 196.405 38.8514 196.092 38.7111H196.082Z" fill="#E2E0D4"/>
</g>
<defs>
<clipPath id="clip0_301_1763">
<rect width="243.872" height="39.9994" fill="white"/>
</clipPath>
</defs>
</svg>
