<svg width="242" height="83" viewBox="0 0 242 83" fill="none" xmlns="http://www.w3.org/2000/svg">
<g clip-path="url(#clip0_333_163)">
<path d="M47.778 34.4889C46.8078 35.9953 45.7501 37.4346 44.7507 38.9235C43.7426 40.424 42.8831 42.0265 41.9828 43.5999C41.6623 44.1593 41.3097 44.6838 40.9484 45.2053L40.7183 53.751C40.3016 69.2516 34.3024 69.4934 30.1039 69.4934C27.0358 69.4934 20.1275 66.3933 18.6212 56.4257C18.4347 57.0085 17.7471 58.8674 15.6522 59.8668C14.0584 60.6272 12.4559 60.5048 11.7333 60.4058C12.3277 61.5858 13.3184 63.2611 14.9646 64.8782C17.8957 67.7569 22.61 70.2189 30.0835 70.2189C37.557 70.2189 47.0438 66.9906 47.3993 53.751L47.9237 34.25C47.8742 34.3287 47.8305 34.4103 47.778 34.4889Z" fill="#A27E63"/>
<path d="M36.5663 13.229L36.5576 13.5582C40.1617 13.5582 41.7322 16.0407 41.6885 17.6461L41.0679 40.6872C41.6856 39.5975 42.312 38.5136 43.0055 37.4763C44.0223 35.9583 45.1062 34.4899 46.0939 32.9485C46.8019 31.8443 47.4021 30.6701 48.049 29.525L48.3695 17.6315C48.4132 16.0261 50.1177 13.5612 53.7189 13.5612L53.7277 13.2319H36.5634L36.5663 13.229Z" fill="#A27E63"/>
<path d="M71.3261 19.8969C71.4718 19.8182 71.6262 19.7483 71.7894 19.69C72.3401 19.3666 72.9752 19.218 73.692 19.2442H73.7503C74.266 19.2442 74.7729 19.3258 75.277 19.4686C74.435 17.2513 72.1915 14.3114 66.4924 13.4403C63.3631 12.9624 59.2928 13.4082 57.125 16.9891L30.7391 58.2696L31.3771 17.633C31.4208 16.0276 33.1253 13.5626 36.7266 13.5626L36.7353 13.2334H19.5711L19.5623 13.5626C23.1665 13.5626 24.7369 16.0451 24.6932 17.6505L25.0545 63.8842L24.9263 64.0736H29.2648C29.2648 64.0736 52.7429 28.2736 58.4915 17.5456C60.432 13.9268 64.4353 13.9006 66.3146 14.1891C67.7889 14.4163 70.7958 15.8528 71.3174 19.8998L71.3261 19.8969Z" fill="#A27E63"/>
<path d="M73.7384 26.036C75.2897 26.036 76.5472 24.7784 76.5472 23.2272C76.5472 21.676 75.2897 20.4185 73.7384 20.4185C72.1872 20.4185 70.9297 21.676 70.9297 23.2272C70.9297 24.7784 72.1872 26.036 73.7384 26.036Z" fill="#A27E63"/>
<path d="M58.8177 13.7524C52.973 5.43977 43.3142 0 32.4056 0C14.6119 0 0.136963 14.475 0.136963 32.2686V37.4374H1.21792V32.2686C1.21792 15.0723 15.2092 1.08096 32.4056 1.08096C42.9704 1.08096 52.3232 6.3634 57.967 14.4255C58.2408 14.1865 58.5235 13.9593 58.8177 13.7495V13.7524Z" fill="#A27E63"/>
<path d="M60.6212 16.6299C60.3502 16.9038 60.0967 17.1922 59.8636 17.4952C62.2412 21.8948 63.5931 26.9267 63.5931 32.2703V37.4391H64.6741V32.2703C64.6741 26.5975 63.2027 21.2655 60.6212 16.6299Z" fill="#A27E63"/>
<path d="M63.5932 44.6406V50.0891C63.5932 67.2855 49.6019 81.2768 32.4056 81.2768C15.2092 81.2768 1.21792 67.2884 1.21792 50.092V44.6435H0.136963V50.092C0.136963 67.8857 14.6119 82.3607 32.4056 82.3607C50.1992 82.3607 64.6742 67.8857 64.6742 50.092V44.6435H63.5932V44.6406Z" fill="#A27E63"/>
<path d="M0.573988 41.4239C0.890992 41.4239 1.14798 41.1669 1.14798 40.8499C1.14798 40.5329 0.890992 40.2759 0.573988 40.2759C0.256983 40.2759 0 40.5329 0 40.8499C0 41.1669 0.256983 41.4239 0.573988 41.4239Z" fill="#A27E63"/>
<path d="M64.1495 41.4239C64.4666 41.4239 64.7235 41.1669 64.7235 40.8499C64.7235 40.5329 64.4666 40.2759 64.1495 40.2759C63.8325 40.2759 63.5756 40.5329 63.5756 40.8499C63.5756 41.1669 63.8325 41.4239 64.1495 41.4239Z" fill="#A27E63"/>
</g>
<path d="M184.751 61.3881H182.655L182.268 62.4563H181.606L183.344 57.6733H184.067L185.8 62.4563H185.138L184.751 61.3881ZM184.572 60.878L183.702 58.4505L182.831 60.878H184.569H184.572Z" fill="#585947"/>
<path d="M190.608 62.4567L189.463 60.4911H188.705V62.4567H188.077V57.647H189.628C189.991 57.647 190.298 57.7084 190.549 57.8339C190.8 57.9568 190.987 58.125 191.113 58.3387C191.238 58.5496 191.3 58.7926 191.3 59.0624C191.3 59.3935 191.203 59.6846 191.014 59.9383C190.824 60.192 190.536 60.3603 190.154 60.4431L191.361 62.4567H190.608ZM188.705 59.9864H189.628C189.967 59.9864 190.224 59.9036 190.395 59.7354C190.565 59.5671 190.651 59.3428 190.651 59.0624C190.651 58.782 190.568 58.5576 190.4 58.4001C190.232 58.2425 189.975 58.1651 189.631 58.1651H188.707V59.9864H188.705Z" fill="#585947"/>
<path d="M197.643 63.3673L196.684 62.4085C196.449 62.4726 196.212 62.5047 195.966 62.5047C195.52 62.5047 195.112 62.4005 194.746 62.1895C194.378 61.9812 194.087 61.6875 193.873 61.3136C193.66 60.9397 193.553 60.5178 193.553 60.0477C193.553 59.5777 193.66 59.1558 193.873 58.7819C194.087 58.408 194.378 58.1143 194.746 57.9059C195.115 57.6976 195.52 57.5908 195.966 57.5908C196.412 57.5908 196.826 57.695 197.194 57.9059C197.563 58.1143 197.851 58.4053 198.065 58.7792C198.275 59.1531 198.382 59.5751 198.382 60.0477C198.382 60.5204 198.281 60.921 198.078 61.2896C197.875 61.6581 197.597 61.9465 197.242 62.1575L198.457 63.3646H197.643V63.3673ZM194.426 61.0572C194.581 61.3456 194.792 61.57 195.061 61.7275C195.331 61.8851 195.632 61.9625 195.969 61.9625C196.305 61.9625 196.607 61.8851 196.877 61.7275C197.146 61.5726 197.357 61.3483 197.512 61.0572C197.667 60.7688 197.744 60.4323 197.744 60.0504C197.744 59.6685 197.667 59.3267 197.512 59.0383C197.357 58.7498 197.146 58.5282 196.882 58.3733C196.615 58.2157 196.311 58.1383 195.972 58.1383C195.632 58.1383 195.328 58.2157 195.061 58.3733C194.794 58.5309 194.583 58.7525 194.431 59.0383C194.276 59.3267 194.199 59.6632 194.199 60.0504C194.199 60.4377 194.276 60.7688 194.431 61.0572H194.426Z" fill="#585947"/>
<path d="M201.354 57.6494V60.6912C201.354 61.1185 201.458 61.4363 201.669 61.6446C201.877 61.8529 202.168 61.9544 202.542 61.9544C202.915 61.9544 203.198 61.8502 203.407 61.6446C203.615 61.439 203.722 61.1212 203.722 60.6912V57.6494H204.349V60.6859C204.349 61.0864 204.269 61.4229 204.109 61.698C203.949 61.9731 203.73 62.176 203.457 62.3096C203.185 62.4431 202.878 62.5099 202.536 62.5099C202.195 62.5099 201.89 62.4431 201.615 62.3096C201.343 62.176 201.127 61.9731 200.967 61.698C200.809 61.4256 200.729 61.0864 200.729 60.6859V57.6494H201.356H201.354Z" fill="#585947"/>
<path d="M207.542 57.6494V62.4591H206.915V57.6494H207.542Z" fill="#585947"/>
<path d="M213.087 57.6494V58.1595H211.776V62.4591H211.149V58.1595H209.83V57.6494H213.087Z" fill="#585947"/>
<path d="M216.005 58.1597V59.7674H217.756V60.2855H216.005V61.9412H217.964V62.4593H215.377V57.6416H217.964V58.1597H216.005Z" fill="#585947"/>
<path d="M223.392 57.6494V58.1595H222.081V62.4591H221.454V58.1595H220.135V57.6494H223.392Z" fill="#585947"/>
<path d="M226.296 57.6494V60.6912C226.296 61.1185 226.401 61.4363 226.611 61.6446C226.82 61.8529 227.111 61.9544 227.484 61.9544C227.858 61.9544 228.141 61.8502 228.349 61.6446C228.558 61.439 228.664 61.1212 228.664 60.6912V57.6494H229.292V60.6859C229.292 61.0864 229.212 61.4229 229.052 61.698C228.891 61.9731 228.672 62.176 228.4 62.3096C228.128 62.4431 227.821 62.5099 227.479 62.5099C227.137 62.5099 226.833 62.4431 226.558 62.3096C226.286 62.176 226.069 61.9731 225.909 61.698C225.752 61.4256 225.672 61.0864 225.672 60.6859V57.6494H226.299H226.296Z" fill="#585947"/>
<path d="M234.388 62.4567L233.243 60.4911H232.485V62.4567H231.857V57.647H233.408C233.772 57.647 234.079 57.7084 234.329 57.8339C234.58 57.9568 234.767 58.125 234.893 58.3387C235.018 58.5496 235.08 58.7926 235.08 59.0624C235.08 59.3935 234.984 59.6846 234.794 59.9383C234.604 60.192 234.316 60.3603 233.934 60.4431L235.141 62.4567H234.388ZM232.485 59.9864H233.408C233.747 59.9864 234.004 59.9036 234.175 59.7354C234.346 59.5671 234.431 59.3428 234.431 59.0624C234.431 58.782 234.348 58.5576 234.18 58.4001C234.012 58.2425 233.756 58.1651 233.411 58.1651H232.487V59.9864H232.485Z" fill="#585947"/>
<path d="M240.408 61.3881H238.313L237.926 62.4563H237.263L239.001 57.6733H239.725L241.457 62.4563H240.795L240.408 61.3881ZM240.229 60.878L239.359 58.4505L238.489 60.878H240.227H240.229Z" fill="#585947"/>
<path d="M182.233 67.1597V68.7674H183.985V69.2855H182.233V70.9412H184.193V71.4593H181.606V66.6416H184.193V67.1597H182.233Z" fill="#585947"/>
<path d="M190.648 66.6494V71.4591H190.021V66.6494H190.648Z" fill="#585947"/>
<path d="M197.015 71.4564H196.388L193.862 67.6268V71.4564H193.235V66.6387H193.862L196.388 70.4603V66.6387H197.015V71.4564Z" fill="#585947"/>
<path d="M202.56 66.6494V67.1595H201.25V71.4591H200.622V67.1595H199.303V66.6494H202.56Z" fill="#585947"/>
<path d="M205.478 67.1597V68.7674H207.23V69.2855H205.478V70.9412H207.438V71.4593H204.851V66.6416H207.438V67.1597H205.478Z" fill="#585947"/>
<path d="M212.438 71.4567L211.293 69.4911H210.535V71.4567H209.907V66.647H211.458C211.822 66.647 212.129 66.7084 212.379 66.8339C212.63 66.9568 212.817 67.125 212.943 67.3387C213.068 67.5496 213.13 67.7926 213.13 68.0624C213.13 68.3935 213.034 68.6846 212.844 68.9383C212.654 69.192 212.366 69.3603 211.984 69.4431L213.191 71.4567H212.438ZM210.535 68.9864H211.458C211.797 68.9864 212.054 68.9036 212.225 68.7354C212.395 68.5671 212.481 68.3428 212.481 68.0624C212.481 67.782 212.398 67.5576 212.23 67.4001C212.062 67.2425 211.805 67.1651 211.461 67.1651H210.537V68.9864H210.535Z" fill="#585947"/>
<path d="M216.245 66.6494V71.4591H215.618V66.6494H216.245Z" fill="#585947"/>
<path d="M219.79 71.192C219.422 70.9837 219.131 70.6899 218.917 70.316C218.704 69.9422 218.597 69.5202 218.597 69.0502C218.597 68.5802 218.704 68.1582 218.917 67.7843C219.131 67.4105 219.422 67.1167 219.79 66.9084C220.159 66.7001 220.565 66.5933 221.011 66.5933C221.456 66.5933 221.87 66.6974 222.239 66.9084C222.607 67.1167 222.895 67.4078 223.109 67.7817C223.32 68.1555 223.427 68.5775 223.427 69.0502C223.427 69.5229 223.32 69.9475 223.109 70.3187C222.898 70.6926 222.607 70.9837 222.239 71.192C221.87 71.4003 221.462 71.5071 221.011 71.5071C220.559 71.5071 220.156 71.403 219.79 71.192ZM221.921 70.7273C222.191 70.5724 222.401 70.3481 222.556 70.057C222.711 69.7686 222.789 69.4321 222.789 69.0502C222.789 68.6683 222.711 68.3265 222.556 68.038C222.401 67.7496 222.191 67.528 221.926 67.3731C221.659 67.2155 221.355 67.1381 221.016 67.1381C220.677 67.1381 220.372 67.2155 220.105 67.3731C219.839 67.5306 219.628 67.7523 219.475 68.038C219.321 68.3265 219.243 68.663 219.243 69.0502C219.243 69.4374 219.321 69.7686 219.475 70.057C219.63 70.3454 219.841 70.5697 220.111 70.7273C220.38 70.8849 220.682 70.9623 221.019 70.9623C221.355 70.9623 221.657 70.8849 221.926 70.7273H221.921Z" fill="#585947"/>
<path d="M228.304 71.4567L227.159 69.4911H226.401V71.4567H225.773V66.647H227.324C227.687 66.647 227.994 66.7084 228.245 66.8339C228.496 66.9568 228.683 67.125 228.809 67.3387C228.934 67.5496 228.996 67.7926 228.996 68.0624C228.996 68.3935 228.899 68.6846 228.71 68.9383C228.52 69.192 228.232 69.3603 227.85 69.4431L229.057 71.4567H228.304ZM226.401 68.9864H227.324C227.663 68.9864 227.92 68.9036 228.09 68.7354C228.261 68.5671 228.347 68.3428 228.347 68.0624C228.347 67.782 228.264 67.5576 228.096 67.4001C227.928 67.2425 227.671 67.1651 227.327 67.1651H226.403V68.9864H226.401Z" fill="#585947"/>
<path d="M232.111 67.1597V68.7674H233.862V69.2855H232.111V70.9412H234.071V71.4593H231.484V66.6416H234.071V67.1597H232.111Z" fill="#585947"/>
<path d="M237.213 71.3364C236.962 71.2242 236.764 71.0667 236.623 70.8664C236.481 70.6661 236.407 70.4337 236.401 70.172H237.071C237.095 70.3964 237.189 70.586 237.352 70.7409C237.515 70.8958 237.752 70.9732 238.065 70.9732C238.377 70.9732 238.598 70.8984 238.772 70.7489C238.946 70.5993 239.031 70.407 239.031 70.172C239.031 69.9878 238.98 69.8382 238.879 69.7234C238.777 69.6085 238.652 69.5204 238.5 69.4617C238.348 69.4029 238.142 69.3361 237.886 69.2694C237.568 69.1866 237.314 69.1038 237.125 69.021C236.935 68.9382 236.77 68.8074 236.636 68.6311C236.5 68.4548 236.433 68.2172 236.433 67.9181C236.433 67.6563 236.5 67.424 236.634 67.221C236.767 67.0181 236.954 66.8632 237.197 66.751C237.437 66.6415 237.715 66.5854 238.027 66.5854C238.478 66.5854 238.847 66.6976 239.135 66.9246C239.423 67.1489 239.584 67.448 239.621 67.8219H238.932C238.908 67.6377 238.812 67.4747 238.644 67.3359C238.473 67.197 238.249 67.1249 237.968 67.1249C237.707 67.1249 237.493 67.1917 237.328 67.3279C237.162 67.4641 237.079 67.6537 237.079 67.8967C237.079 68.0703 237.13 68.2145 237.229 68.324C237.328 68.4335 237.45 68.5189 237.595 68.575C237.739 68.6311 237.944 68.6979 238.206 68.7726C238.524 68.8608 238.777 68.9462 238.972 69.0317C239.164 69.1172 239.33 69.248 239.469 69.4243C239.608 69.6005 239.674 69.8409 239.674 70.1453C239.674 70.3803 239.613 70.602 239.487 70.8076C239.362 71.0159 239.18 71.1815 238.935 71.3124C238.692 71.4405 238.404 71.5046 238.073 71.5046C237.741 71.5046 237.472 71.4486 237.221 71.3364H237.213Z" fill="#585947"/>
<path d="M84.5103 10.3877H93.4517V10.5928C92.604 10.5928 91.9341 10.8252 91.4419 11.29C90.9771 11.7275 90.7446 12.1924 90.7446 12.6846V31.4697C90.7446 33.1104 90.4712 34.5186 89.9243 35.6943C89.4048 36.8701 88.6802 37.7588 87.7505 38.3604C86.8481 38.9619 85.9185 39.3857 84.9614 39.6318C84.0317 39.9053 83.0337 40.042 81.9673 40.042C77.2915 40.042 74.0513 38.3467 72.2466 34.9561L75.7739 32.8643C76.0747 34.4502 76.6353 35.79 77.4556 36.8838C78.2759 37.9775 79.0688 38.7158 79.8345 39.0986C80.6274 39.4814 81.3384 39.6729 81.9673 39.6729C82.5415 39.6729 83.0063 39.6455 83.3618 39.5908C83.7173 39.5635 84.1685 39.3994 84.7153 39.0986C85.2896 38.7979 85.7271 38.3877 86.0278 37.8682C86.356 37.3213 86.6431 36.501 86.8892 35.4072C87.1353 34.3135 87.2583 33.001 87.2583 31.4697V12.6846C87.2583 12.1924 87.0122 11.7275 86.52 11.29C86.0278 10.8252 85.3579 10.5928 84.5103 10.5928V10.3877Z" fill="#585947"/>
<path d="M110.68 27.2041C110.434 27.3955 110.147 27.5732 109.819 27.7373C109.518 27.874 109.135 28.0244 108.67 28.1885C108.233 28.3252 107.863 28.4346 107.563 28.5166C107.289 28.5986 106.824 28.7217 106.168 28.8857C105.512 29.0498 105.047 29.1729 104.774 29.2549C102.996 29.7197 101.574 30.2939 100.508 30.9775C99.4689 31.6338 98.8127 32.5635 98.5392 33.7666C98.2111 35.1885 98.4435 36.4053 99.2365 37.417C100.029 38.4014 100.877 39.0166 101.779 39.2627C103.174 39.6455 104.787 39.3721 106.619 38.4424C108.451 37.5127 109.805 36.1455 110.68 34.3408V27.2041ZM105.348 18.96C106.168 18.96 106.961 19.042 107.727 19.2061C108.492 19.3428 109.272 19.6162 110.065 20.0264C110.858 20.4092 111.541 20.9014 112.115 21.5029C112.717 22.1045 113.195 22.9248 113.551 23.9639C113.934 25.0029 114.125 26.1787 114.125 27.4912V36.8838C114.125 37.6494 114.385 38.1416 114.904 38.3604C115.451 38.5518 115.957 38.2646 116.422 37.499V38.0322C116.258 38.4971 115.903 38.9346 115.356 39.3447C114.809 39.7549 114.194 39.96 113.51 39.96C111.623 39.96 110.68 39.1396 110.68 37.499V36.6377C109.422 37.9502 107.522 38.9072 104.979 39.5088C102.463 40.083 100.358 40.1377 98.6623 39.6729C97.4318 39.3447 96.4201 38.6611 95.6271 37.6221C94.8615 36.583 94.6838 35.3389 95.0939 33.8896C95.3947 32.7959 96.0099 31.9209 96.9396 31.2646C97.8967 30.5811 99.0041 30.0889 100.262 29.7881C101.52 29.46 102.791 29.1729 104.076 28.9268C105.362 28.6533 106.619 28.2979 107.85 27.8604C109.08 27.3955 110.01 26.8076 110.639 26.0967C110.584 24.8115 110.42 23.7178 110.147 22.8154C109.873 21.9131 109.572 21.2432 109.244 20.8057C108.916 20.3682 108.492 20.0264 107.973 19.7803C107.453 19.5342 107.016 19.3975 106.66 19.3701C106.332 19.3154 105.895 19.2881 105.348 19.2881C104.664 19.2881 103.967 19.4111 103.256 19.6572C102.572 19.9033 101.807 20.4912 100.959 21.4209C100.139 22.3232 99.5236 23.5264 99.1135 25.0303L95.5861 23.4307C96.1603 22.2549 97.2541 21.2158 98.8674 20.3135C100.508 19.4111 102.668 18.96 105.348 18.96Z" fill="#585947"/>
<path d="M129.426 19.2881C127.703 19.2881 126.144 20.1494 124.75 21.8721C123.383 23.5674 122.672 25.2354 122.617 26.876V37.1299C122.617 37.6221 122.863 38.1006 123.355 38.5654C123.848 39.0303 124.517 39.2627 125.365 39.2627V39.4268H116.424V39.2627C117.271 39.2627 117.941 39.0303 118.433 38.5654C118.926 38.1006 119.172 37.6221 119.172 37.1299V21.2158C119.172 20.5596 118.734 20.2314 117.859 20.2314V19.9854L122.617 18.96L122.658 22.0771C123.314 21.2295 124.217 20.5049 125.365 19.9033C126.541 19.2744 127.894 18.96 129.426 18.96C133.719 18.96 136.398 20.4502 137.465 23.4307L133.978 25.0303C133.76 22.7334 133.254 21.2021 132.461 20.4365C131.668 19.6709 130.656 19.2881 129.426 19.2881Z" fill="#585947"/>
<path d="M143.209 9.3623V37.2939C143.209 37.7861 143.455 38.2646 143.947 38.7295C144.439 39.1943 145.109 39.4268 145.957 39.4268V39.5908H137.015V39.4268C137.863 39.4268 138.533 39.1943 139.025 38.7295C139.517 38.2646 139.763 37.7861 139.763 37.2939V11.6592C139.763 11.0029 139.326 10.6748 138.451 10.6748V10.3877L143.209 9.3623Z" fill="#585947"/>
<path d="M152.767 19.124V37.2939C152.767 37.7861 153.013 38.2646 153.505 38.7295C153.997 39.1943 154.667 39.4268 155.515 39.4268V39.5908H146.573V39.4268C147.421 39.4268 148.077 39.1943 148.542 38.7295C149.034 38.2646 149.28 37.7861 149.28 37.2939V21.4209C149.28 20.7646 148.857 20.4365 148.009 20.4365V20.1494L152.767 19.124ZM151.044 9.3623L153.628 12.2744L151.044 15.1865L148.46 12.2744L151.044 9.3623Z" fill="#585947"/>
<path d="M169.339 19.124C174.808 19.124 177.542 21.8994 177.542 27.4502V37.2939C177.542 37.7861 177.788 38.2646 178.28 38.7295C178.772 39.1943 179.442 39.4268 180.29 39.4268V39.5908H171.349V39.4268C172.196 39.4268 172.852 39.1943 173.317 38.7295C173.809 38.2646 174.056 37.7861 174.056 37.2939L174.015 27.4502C174.015 25.7002 173.878 24.2646 173.604 23.1436C173.331 21.9951 172.948 21.1748 172.456 20.6826C171.964 20.1904 171.485 19.8623 171.02 19.6982C170.556 19.5342 169.995 19.4521 169.339 19.4521C167.616 19.4521 166.03 20.3135 164.581 22.0361C163.132 23.7588 162.38 25.4268 162.325 27.04V37.2939C162.325 37.7861 162.558 38.2646 163.022 38.7295C163.515 39.1943 164.184 39.4268 165.032 39.4268V39.5908H156.091V39.4268C156.938 39.4268 157.608 39.1943 158.1 38.7295C158.593 38.2646 158.839 37.7861 158.839 37.2939V21.4209C158.839 20.7646 158.415 20.4365 157.567 20.4365V20.1494L162.325 19.124V22.5693C163.966 20.2725 166.304 19.124 169.339 19.124Z" fill="#585947"/>
<path d="M192.924 19.5342C191.311 19.5615 189.753 20.3271 188.249 21.8311C186.745 23.335 185.678 25.3037 185.049 27.7373C184.885 28.3662 184.749 29.1045 184.639 29.9521L197.19 27.3271C197.245 25.2764 196.999 23.5537 196.452 22.1592C195.905 20.7646 195.112 19.9307 194.073 19.6572C193.717 19.5752 193.335 19.5342 192.924 19.5342ZM191.366 18.96C194.346 18.96 196.616 19.6846 198.174 21.1338C199.733 22.5557 200.758 24.6201 201.251 27.3271L199.2 27.6963L184.557 30.7314C184.42 32.9189 184.735 34.792 185.501 36.3506C186.266 37.9092 187.333 38.8799 188.7 39.2627C190.641 39.7822 192.391 39.5088 193.95 38.4424C195.536 37.3486 196.67 35.8311 197.354 33.8896L200.635 35.4893C198.776 38.4697 195.686 39.96 191.366 39.96C188.194 39.96 185.651 38.9619 183.737 36.9658C181.823 34.9697 180.866 32.4678 180.866 29.46C180.866 26.4521 181.823 23.9502 183.737 21.9541C185.651 19.958 188.194 18.96 191.366 18.96Z" fill="#585947"/>
<path d="M71.4263 45.3877H78.8091V45.5928C77.688 45.5928 77.3325 46.126 77.7427 47.1924C78.9458 50.3096 80.7915 55.0947 83.2798 61.5479C85.7954 68.001 87.2173 71.6377 87.5454 72.458C87.9556 71.3916 88.8989 69.0127 90.3755 65.3213C91.8794 61.6299 93.1646 58.4033 94.231 55.6416C95.3247 52.8525 96.3091 50.2002 97.1841 47.6846C97.7036 46.29 97.2661 45.5928 95.8716 45.5928V45.3877H101.04V45.5928C99.5083 45.5928 98.4829 46.29 97.9634 47.6846C96.3774 51.7041 92.9185 60.6182 87.5864 74.4268H84.5923L74.0103 47.1924C73.6001 46.1533 72.7388 45.6201 71.4263 45.5928V45.3877Z" fill="#585947"/>
<path d="M107.399 54.124V72.2939C107.399 72.7861 107.645 73.2646 108.137 73.7295C108.629 74.1943 109.299 74.4268 110.147 74.4268V74.5908H101.205V74.4268C102.053 74.4268 102.709 74.1943 103.174 73.7295C103.666 73.2646 103.912 72.7861 103.912 72.2939V56.4209C103.912 55.7646 103.488 55.4365 102.641 55.4365V55.1494L107.399 54.124ZM105.676 44.3623L108.26 47.2744L105.676 50.1865L103.092 47.2744L105.676 44.3623Z" fill="#585947"/>
<path d="M122.986 54.5342C121.373 54.5615 119.814 55.3271 118.31 56.8311C116.807 58.335 115.74 60.3037 115.111 62.7373C114.947 63.3662 114.81 64.1045 114.701 64.9521L127.252 62.3271C127.307 60.2764 127.06 58.5537 126.514 57.1592C125.967 55.7646 125.174 54.9307 124.135 54.6572C123.779 54.5752 123.396 54.5342 122.986 54.5342ZM121.428 53.96C124.408 53.96 126.678 54.6846 128.236 56.1338C129.795 57.5557 130.82 59.6201 131.312 62.3271L129.262 62.6963L114.619 65.7314C114.482 67.9189 114.797 69.792 115.562 71.3506C116.328 72.9092 117.394 73.8799 118.762 74.2627C120.703 74.7822 122.453 74.5088 124.012 73.4424C125.598 72.3486 126.732 70.8311 127.416 68.8896L130.697 70.4893C128.838 73.4697 125.748 74.96 121.428 74.96C118.256 74.96 115.713 73.9619 113.799 71.9658C111.885 69.9697 110.928 67.4678 110.928 64.46C110.928 61.4521 111.885 58.9502 113.799 56.9541C115.713 54.958 118.256 53.96 121.428 53.96Z" fill="#585947"/>
<path d="M137.712 54.124V72.2939C137.712 72.7861 137.959 73.2646 138.451 73.7295C138.943 74.1943 139.613 74.4268 140.46 74.4268V74.5908H131.519V74.4268C132.367 74.4268 133.023 74.1943 133.488 73.7295C133.98 73.2646 134.226 72.7861 134.226 72.2939V56.4209C134.226 55.7646 133.802 55.4365 132.955 55.4365V55.1494L137.712 54.124ZM135.99 44.3623L138.574 47.2744L135.99 50.1865L133.406 47.2744L135.99 44.3623Z" fill="#585947"/>
<path d="M167.984 62.2041C167.765 62.3682 167.505 62.5322 167.204 62.6963C166.931 62.833 166.671 62.9561 166.425 63.0654C166.206 63.1475 165.878 63.2568 165.441 63.3936C165.003 63.5303 164.675 63.626 164.456 63.6807C164.265 63.7354 163.882 63.8447 163.308 64.0088C162.734 64.1455 162.351 64.2412 162.159 64.2959C160.382 64.7334 158.96 65.2939 157.894 65.9775C156.827 66.6611 156.157 67.5908 155.884 68.7666C155.556 70.2158 155.788 71.4463 156.581 72.458C157.374 73.4424 158.208 74.0439 159.083 74.2627C160.505 74.6455 162.132 74.3721 163.964 73.4424C165.796 72.5127 167.136 71.1592 167.984 69.3818V62.2041ZM162.693 53.96C163.759 53.96 164.757 54.0967 165.687 54.3701C166.644 54.6162 167.573 55.04 168.476 55.6416C169.405 56.2432 170.13 57.1318 170.65 58.3076C171.197 59.4834 171.47 60.8916 171.47 62.5322V71.8838C171.47 72.6494 171.73 73.1416 172.249 73.3604C172.769 73.5518 173.275 73.2646 173.767 72.499L173.726 73.0322C173.562 73.4971 173.206 73.9346 172.659 74.3447C172.14 74.7549 171.538 74.96 170.855 74.96C169.98 74.96 169.282 74.7549 168.763 74.3447C168.243 73.9346 167.984 73.3193 167.984 72.499V71.6377C166.753 72.9502 164.866 73.9072 162.323 74.5088C159.808 75.083 157.702 75.1514 156.007 74.7139C154.777 74.3857 153.765 73.7021 152.972 72.6631C152.206 71.5967 152.029 70.3389 152.439 68.8896C152.739 67.7959 153.355 66.9209 154.284 66.2646C155.241 65.5811 156.349 65.0889 157.607 64.7881C158.864 64.46 160.136 64.1729 161.421 63.9268C162.706 63.6807 163.964 63.3389 165.195 62.9014C166.425 62.4365 167.355 61.8486 167.984 61.1377C167.902 59.8525 167.724 58.7588 167.45 57.8564C167.177 56.9541 166.876 56.2842 166.548 55.8467C166.247 55.3818 165.837 55.0264 165.318 54.7803C164.798 54.5342 164.361 54.3975 164.005 54.3701C163.677 54.3154 163.239 54.2881 162.693 54.2881V53.96ZM147.271 53.96V57.0771C147.927 56.2295 148.829 55.5049 149.978 54.9033C151.154 54.2744 152.507 53.96 154.038 53.96C158.331 53.96 161.025 55.4502 162.118 58.4307L158.632 60.0303C158.523 58.8271 158.318 57.8291 158.017 57.0361C157.716 56.2158 157.333 55.6279 156.868 55.2725C156.431 54.8896 155.993 54.6299 155.556 54.4932C155.118 54.3564 154.613 54.2881 154.038 54.2881C152.316 54.2881 150.757 55.1494 149.363 56.8721C147.995 58.5674 147.298 60.2354 147.271 61.876V72.1299C147.271 72.6221 147.517 73.1006 148.009 73.5654C148.501 74.0029 149.157 74.2217 149.978 74.2217V74.3857H141.077V74.2217C141.925 74.2217 142.581 74.0029 143.046 73.5654C143.538 73.1006 143.784 72.6221 143.784 72.1299V56.2158C143.784 55.5869 143.361 55.2725 142.513 55.2725V54.9443L147.271 53.96Z" fill="#585947"/>
<defs>
<clipPath id="clip0_333_163">
<rect width="76.5472" height="82.36" fill="white"/>
</clipPath>
</defs>
</svg>
